<svg width="20" height="20" viewBox="0 0 20 20" fill="none" xmlns="http://www.w3.org/2000/svg">
<g id="Frame" clip-path="url(#clip0_203_203)">
<path id="Vector" d="M18.8165 4.62231L15.5553 1.34454C15.3398 1.13013 15.0482 1.00977 14.7442 1.00977C14.4402 1.00977 14.1486 1.13013 13.9331 1.34454L2.37201 12.889L1.31645 17.4445C1.28004 17.6111 1.28129 17.7836 1.32011 17.9496C1.35893 18.1156 1.43433 18.2708 1.54082 18.4039C1.64731 18.537 1.78219 18.6447 1.93561 18.719C2.08902 18.7933 2.2571 18.8324 2.42757 18.8334C2.50699 18.8414 2.58703 18.8414 2.66645 18.8334L7.27201 17.7779L18.8165 6.24453C19.0309 6.02904 19.1512 5.73741 19.1512 5.43342C19.1512 5.12943 19.0309 4.83781 18.8165 4.62231ZM6.71645 16.7779L2.39979 17.6834L3.38312 13.4501L12.0331 4.83342L15.3665 8.16676L6.71645 16.7779ZM16.1109 7.3612L12.7776 4.02787L14.7109 2.10565L17.9887 5.43898L16.1109 7.3612Z" fill="white"/>
</g>
<defs>
<clipPath id="clip0_203_203">
<rect width="20" height="20" fill="white"/>
</clipPath>
</defs>
</svg>
