<svg width="30" height="30" viewBox="0 0 30 30" fill="none" xmlns="http://www.w3.org/2000/svg">
<g id="dessinMin 1" clip-path="url(#clip0_164_630)">
<g id="layer1">
<g id="g6609">
<g id="g10846">
<path id="path1942" d="M1.95361 12.3279C2.2874 -3.84886 27.8027 -2.37228 28.0469 12.2211L1.95361 12.3279Z" stroke="#8BDC0B" stroke-width="1.465" stroke-linecap="round" stroke-linejoin="round"/>
<path id="path3582" d="M5.02588 9.45176C5.18131 7.85857 5.84131 6.98445 6.7896 5.98125C8.35819 4.5394 9.05834 4.02226 10.0997 3.69775" stroke="#8BDC0B" stroke-width="1.465" stroke-linecap="round"/>
<path id="path13357" d="M0.825684 16.9182L4.21519 15.4475L7.98986 16.9956L11.3023 15.5249L15.077 17.0731L18.5436 15.5249L21.9331 16.9182L25.5537 15.5249L29.1743 16.8408" stroke="#8BDC0B" stroke-width="1.665" stroke-linecap="round" stroke-linejoin="round"/>
<path id="path13538" d="M0.825684 20.324L4.21519 18.8533L7.98986 20.4014L11.3023 18.9307L15.077 20.4788L18.5436 18.9307L21.9331 20.324L25.5537 18.9307L29.1743 20.2466" stroke="#8BDC0B" stroke-width="1.665" stroke-linecap="round" stroke-linejoin="round"/>
<path id="rect13562" d="M25.1353 23.5967H4.69718C3.17521 23.5967 1.94141 24.8364 1.94141 26.3658V26.4827C1.94141 28.012 3.17521 29.2518 4.69718 29.2518H25.1353C26.6572 29.2518 27.891 28.012 27.891 26.4827V26.3658C27.891 24.8364 26.6572 23.5967 25.1353 23.5967Z" stroke="#8BDC0B" stroke-width="1.50113" stroke-linecap="round" stroke-linejoin="round"/>
</g>
</g>
</g>
</g>
<defs>
<clipPath id="clip0_164_630">
<rect width="30" height="30" fill="white"/>
</clipPath>
</defs>
</svg>
