<svg width="100" height="113" viewBox="0 0 100 113" fill="none" xmlns="http://www.w3.org/2000/svg">
<g id="layer1">
<g id="g6609">
<path id="path1942" d="M28.5782 19.1651C29.1036 -6.17157 69.26 -3.85888 69.6444 18.9978L28.5782 19.1651Z" stroke="#8BDC0B" stroke-width="1.465" stroke-linecap="round" stroke-linejoin="round"/>
<path id="path3582" d="M33.4136 14.6604C33.6582 12.165 34.6969 10.7959 36.1894 9.2247C38.658 6.96642 39.7599 6.15644 41.3989 5.64819" stroke="#8BDC0B" stroke-width="1.465" stroke-linecap="round"/>
<path id="path13357" d="M26.8032 26.3545L32.1377 24.051L38.0784 26.4758L43.2916 24.1723L49.2323 26.597L54.688 24.1723L60.0225 26.3545L65.7207 24.1723L71.4189 26.2333" stroke="#8BDC0B" stroke-width="1.665" stroke-linecap="round" stroke-linejoin="round"/>
<path id="path13538" d="M26.8032 31.689L32.1377 29.3855L38.0784 31.8103L43.2916 29.5067L49.2323 31.9315L54.688 29.5067L60.0225 31.689L65.7207 29.5067L71.4189 31.5678" stroke="#8BDC0B" stroke-width="1.665" stroke-linecap="round" stroke-linejoin="round"/>
<path id="rect13562" d="M65.0621 36.8149H32.8962C30.5009 36.8149 28.5591 38.7567 28.5591 41.152V41.3351C28.5591 43.7304 30.5009 45.6722 32.8962 45.6722H65.0621C67.4574 45.6722 69.3992 43.7304 69.3992 41.3351V41.152C69.3992 38.7567 67.4574 36.8149 65.0621 36.8149Z" stroke="#8BDC0B" stroke-width="1.50113" stroke-linecap="round" stroke-linejoin="round"/>
<g id="text14081">
<path id="path10215" d="M5.05807 86.9873C8.389 86.9873 10.1161 85.0175 10.1161 81.5702V74.5218H5.21228V77.5997H6.90858V81.8165C6.90858 83.3554 6.23006 83.9094 5.1506 83.9094C4.07113 83.9094 3.39261 83.3554 3.39261 81.8165V70.0281C3.39261 68.4891 4.07113 67.9043 5.1506 67.9043C6.23006 67.9043 6.90858 68.4891 6.90858 70.0281V72.0903H10.1161V70.2435C10.1161 66.7963 8.389 64.8264 5.05807 64.8264C1.72715 64.8264 0 66.7963 0 70.2435V81.5702C0 85.0175 1.72715 86.9873 5.05807 86.9873Z" fill="#FD5A1E"/>
<path id="path10217" d="M17.1982 86.9873C20.5291 86.9873 22.3488 85.0175 22.3488 81.5702V70.2435C22.3488 66.7963 20.5291 64.8264 17.1982 64.8264C13.8673 64.8264 12.0476 66.7963 12.0476 70.2435V81.5702C12.0476 85.0175 13.8673 86.9873 17.1982 86.9873ZM17.1982 83.9094C16.1187 83.9094 15.4402 83.3247 15.4402 81.7857V70.0281C15.4402 68.4891 16.1187 67.9043 17.1982 67.9043C18.2777 67.9043 18.9562 68.4891 18.9562 70.0281V81.7857C18.9562 83.3247 18.2777 83.9094 17.1982 83.9094Z" fill="#FD5A1E"/>
<path id="path10219" d="M29.547 86.9873C32.8779 86.9873 34.6975 85.0175 34.6975 81.5702V70.2435C34.6975 66.7963 32.8779 64.8264 29.547 64.8264C26.216 64.8264 24.3964 66.7963 24.3964 70.2435V81.5702C24.3964 85.0175 26.216 86.9873 29.547 86.9873ZM29.547 83.9094C28.4675 83.9094 27.789 83.3247 27.789 81.7857V70.0281C27.789 68.4891 28.4675 67.9043 29.547 67.9043C30.6264 67.9043 31.3049 68.4891 31.3049 70.0281V81.7857C31.3049 83.3247 30.6264 83.9094 29.547 83.9094Z" fill="#FD5A1E"/>
<path id="path10221" d="M36.9919 86.6797H42.1734C45.566 86.6797 47.2315 84.8021 47.2315 81.3549V70.4591C47.2315 67.0118 45.566 65.1343 42.1734 65.1343H36.9919V86.6797ZM40.3846 83.6018V68.2122H42.1117C43.1912 68.2122 43.8388 68.7662 43.8388 70.3052V81.5088C43.8388 83.0477 43.1912 83.6018 42.1117 83.6018H40.3846Z" fill="#FD5A1E"/>
<path id="path10223" d="M54.4609 86.6797H57.8535V77.292H62.2331V74.2141H57.8535V68.2122H63.4359V65.1343H54.4609V86.6797Z" fill="#FD5A1E"/>
<path id="path10225" d="M69.9668 86.9873C73.2977 86.9873 75.1173 85.0175 75.1173 81.5702V70.2435C75.1173 66.7963 73.2977 64.8264 69.9668 64.8264C66.6358 64.8264 64.8162 66.7963 64.8162 70.2435V81.5702C64.8162 85.0175 66.6358 86.9873 69.9668 86.9873ZM69.9668 83.9094C68.8873 83.9094 68.2088 83.3247 68.2088 81.7857V70.0281C68.2088 68.4891 68.8873 67.9043 69.9668 67.9043C71.0462 67.9043 71.7247 68.4891 71.7247 70.0281V81.7857C71.7247 83.3247 71.0462 83.9094 69.9668 83.9094Z" fill="#FD5A1E"/>
<path id="path10227" d="M82.3155 86.9873C85.6464 86.9873 87.4661 85.0175 87.4661 81.5702V70.2435C87.4661 66.7963 85.6464 64.8264 82.3155 64.8264C78.9846 64.8264 77.1649 66.7963 77.1649 70.2435V81.5702C77.1649 85.0175 78.9846 86.9873 82.3155 86.9873ZM82.3155 83.9094C81.236 83.9094 80.5575 83.3247 80.5575 81.7857V70.0281C80.5575 68.4891 81.236 67.9043 82.3155 67.9043C83.395 67.9043 84.0735 68.4891 84.0735 70.0281V81.7857C84.0735 83.3247 83.395 83.9094 82.3155 83.9094Z" fill="#FD5A1E"/>
<path id="path10229" d="M89.7605 86.6797H94.9419C98.3345 86.6797 100 84.8021 100 81.3549V70.4591C100 67.0118 98.3345 65.1343 94.9419 65.1343H89.7605V86.6797ZM93.1531 83.6018V68.2122H94.8802C95.9597 68.2122 96.6074 68.7662 96.6074 70.3052V81.5088C96.6074 83.0477 95.9597 83.6018 94.8802 83.6018H93.1531Z" fill="#FD5A1E"/>
</g>
<g id="text3331">
<path id="path10250" d="M8.72253 109.06H11.7973V110.088H8.72253V109.06ZM8.83234 112.103H7.34985V106.571H12.1908V107.598H8.83234V112.103Z" fill="#8BDC0B"/>
<path id="path10252" d="M12.0309 112.103L14.8861 106.571H16.3503L19.2146 112.103H17.6589L15.3162 107.219H15.9019L13.55 112.103H12.0309ZM13.4585 110.918L13.852 109.945H17.1464L17.5491 110.918H13.4585Z" fill="#8BDC0B"/>
<path id="path10254" d="M21.9839 112.198C21.4715 112.198 20.9804 112.14 20.5106 112.024C20.0408 111.903 19.6626 111.747 19.3759 111.558L19.8792 110.594C20.1537 110.762 20.477 110.902 20.8492 111.012C21.2274 111.118 21.6087 111.171 21.9931 111.171C22.2859 111.171 22.5208 111.147 22.6977 111.099C22.8808 111.047 23.015 110.976 23.1004 110.886C23.1858 110.797 23.2285 110.694 23.2285 110.578C23.2285 110.43 23.1614 110.314 23.0272 110.23C22.893 110.141 22.716 110.069 22.4964 110.017C22.2768 109.959 22.0327 109.906 21.7643 109.859C21.502 109.806 21.2366 109.743 20.9682 109.669C20.7058 109.595 20.4648 109.5 20.2452 109.384C20.0256 109.269 19.8456 109.116 19.7053 108.926C19.5711 108.736 19.504 108.494 19.504 108.199C19.504 107.883 19.6016 107.596 19.7968 107.338C19.9981 107.074 20.2971 106.866 20.6936 106.713C21.0963 106.555 21.5996 106.476 22.2036 106.476C22.6062 106.476 23.0028 106.518 23.3932 106.603C23.7837 106.682 24.1284 106.803 24.4273 106.966L23.9698 107.938C23.6708 107.791 23.3719 107.683 23.0729 107.614C22.774 107.54 22.4812 107.503 22.1944 107.503C21.9077 107.503 21.6728 107.532 21.4898 107.59C21.3068 107.648 21.1756 107.725 21.0963 107.82C21.017 107.909 20.9773 108.014 20.9773 108.136C20.9773 108.278 21.0444 108.394 21.1786 108.483C21.3128 108.568 21.4898 108.636 21.7094 108.689C21.929 108.742 22.17 108.794 22.4323 108.847C22.7008 108.9 22.9662 108.96 23.2285 109.029C23.4969 109.097 23.741 109.189 23.9606 109.305C24.1802 109.421 24.3571 109.574 24.4914 109.764C24.6317 109.953 24.7018 110.193 24.7018 110.483C24.7018 110.794 24.6012 111.078 24.3999 111.336C24.1985 111.595 23.8965 111.803 23.4939 111.961C23.0973 112.119 22.594 112.198 21.9839 112.198H21.9839Z" fill="#8BDC0B"/>
<path id="path10256" d="M26.9614 112.103V107.614H24.9115V106.571H30.4937V107.614H28.4439V112.103H26.9614Z" fill="#8BDC0B"/>
<path id="path10258" d="M33.0322 112.103L35.8874 106.571H37.3516L40.2159 112.103H38.6602L36.3175 107.219H36.9032L34.5513 112.103H33.0322ZM34.4598 110.918L34.8533 109.945H38.1477L38.5504 110.918H34.4598Z" fill="#8BDC0B"/>
<path id="path10260" d="M40.8805 112.103V106.571H42.1068L45.8862 110.554H45.2914V106.571H46.7556V112.103H45.5385L41.7499 108.12H42.3447V112.103H40.8805Z" fill="#8BDC0B"/>
<path id="path10262" d="M48.28 112.103V106.571H51.1901C51.8856 106.571 52.4987 106.687 53.0295 106.919C53.5603 107.145 53.9751 107.464 54.2741 107.875C54.573 108.286 54.7225 108.773 54.7225 109.337C54.7225 109.895 54.573 110.383 54.2741 110.799C53.9751 111.21 53.5603 111.531 53.0295 111.763C52.4987 111.99 51.8856 112.103 51.1901 112.103H48.28ZM49.7625 111.052H51.1169C51.544 111.052 51.9131 110.983 52.2242 110.846C52.5414 110.704 52.7855 110.504 52.9563 110.246C53.1332 109.988 53.2217 109.685 53.2217 109.337C53.2217 108.984 53.1332 108.681 52.9563 108.428C52.7855 108.17 52.5414 107.972 52.2242 107.835C51.9131 107.693 51.544 107.622 51.1169 107.622H49.7625V111.052Z" fill="#8BDC0B"/>
<path id="path10264" d="M60.537 112.198C60.0246 112.198 59.5335 112.14 59.0637 112.024C58.5939 111.903 58.2157 111.747 57.929 111.558L58.4323 110.594C58.7068 110.762 59.0302 110.902 59.4023 111.012C59.7805 111.118 60.1619 111.171 60.5462 111.171C60.839 111.171 61.0739 111.147 61.2508 111.099C61.4339 111.047 61.5681 110.976 61.6535 110.886C61.7389 110.797 61.7816 110.694 61.7816 110.578C61.7816 110.43 61.7145 110.314 61.5803 110.23C61.4461 110.141 61.2692 110.069 61.0495 110.017C60.8299 109.959 60.5859 109.906 60.3174 109.859C60.0551 109.806 59.7897 109.743 59.5213 109.669C59.259 109.595 59.018 109.5 58.7984 109.384C58.5787 109.269 58.3987 109.116 58.2584 108.926C58.1242 108.736 58.0571 108.494 58.0571 108.199C58.0571 107.883 58.1547 107.596 58.3499 107.338C58.5513 107.074 58.8502 106.866 59.2468 106.713C59.6494 106.555 60.1527 106.476 60.7567 106.476C61.1593 106.476 61.5559 106.518 61.9464 106.603C62.3368 106.682 62.6815 106.803 62.9805 106.966L62.5229 107.938C62.224 107.791 61.925 107.683 61.6261 107.614C61.3271 107.54 61.0343 107.503 60.7476 107.503C60.4608 107.503 60.2259 107.532 60.0429 107.59C59.8599 107.648 59.7287 107.725 59.6494 107.82C59.5701 107.909 59.5305 108.014 59.5305 108.136C59.5305 108.278 59.5976 108.394 59.7318 108.483C59.866 108.568 60.043 108.636 60.2626 108.689C60.4822 108.742 60.7232 108.794 60.9855 108.847C61.254 108.9 61.5193 108.96 61.7817 109.029C62.0501 109.097 62.2941 109.189 62.5138 109.305C62.7334 109.421 62.9103 109.574 63.0446 109.764C63.1849 109.953 63.255 110.193 63.255 110.483C63.255 110.794 63.1544 111.078 62.953 111.336C62.7517 111.595 62.4497 111.803 62.0471 111.961C61.6505 112.119 61.1472 112.198 60.5371 112.198H60.537Z" fill="#8BDC0B"/>
<path id="path10266" d="M64.2769 112.103V106.571H65.7594V112.103H64.2769Z" fill="#8BDC0B"/>
<path id="path10268" d="M67.2795 112.103V106.571H68.5058L71.2329 110.475H70.5831L73.2644 106.571H74.4816L74.4999 112.103H73.1089L73.1005 108.412H73.3567L71.2153 111.518H70.5473L68.3602 108.412H68.6713V112.103H67.2795Z" fill="#8BDC0B"/>
<path id="path10270" d="M76.0198 112.103V106.571H78.7926C79.3661 106.571 79.8602 106.652 80.2751 106.816C80.6899 106.974 81.0102 107.203 81.236 107.503C81.4617 107.804 81.5746 108.162 81.5746 108.578C81.5746 108.989 81.4617 109.345 81.236 109.645C81.0102 109.945 80.6899 110.177 80.2751 110.341C79.8602 110.499 79.3661 110.578 78.7926 110.578H76.8434L77.5023 110.001V112.103H76.0198ZM77.5023 110.143L76.8434 109.534H78.7102C79.1678 109.534 79.5094 109.45 79.7352 109.282C79.9609 109.113 80.0738 108.879 80.0738 108.578C80.0738 108.273 79.9609 108.036 79.7352 107.867C79.5094 107.698 79.1678 107.614 78.7102 107.614H76.8434L77.5023 107.005V110.143Z" fill="#8BDC0B"/>
<path id="path10272" d="M82.6329 112.103V106.571H84.1154V111.06H87.3275V112.103H82.6329Z" fill="#8BDC0B"/>
<path id="path10274" d="M89.5193 108.8H92.6032V109.795H89.5193V108.8ZM89.6291 111.076H93.1157V112.103H88.1558V106.571H92.9967V107.598H89.6291V111.076Z" fill="#8BDC0B"/>
</g>
</g>
</g>
</svg>
