<svg width="30" height="30" viewBox="0 0 30 30" fill="none" xmlns="http://www.w3.org/2000/svg">
<g id="cil:burger">
<path id="Vector" d="M24.1826 5.21554C22.098 3.98595 19.346 3.30884 16.4338 3.30884H14.0349C11.1228 3.30884 8.37076 3.98595 6.28611 5.21554C4.04613 6.53671 2.8125 8.34684 2.8125 10.3125V11.25H27.6562V10.3125C27.6562 8.34684 26.4226 6.53671 24.1826 5.21554ZM4.85156 9.37499C5.68084 7.02415 9.5499 5.18384 14.035 5.18384H16.434C20.9191 5.18384 24.7881 7.02415 25.6174 9.37499H4.85156ZM2.8125 17.8125H27.6562V19.6875H2.8125V17.8125ZM22.6875 13.1273C21.2353 13.1273 20.4744 13.4862 19.8031 13.8028C19.2152 14.0801 18.7508 14.2991 17.7186 14.2991C16.6864 14.2991 16.2221 14.0801 15.6342 13.8028C14.9629 13.4864 14.2021 13.1273 12.7499 13.1273C11.2977 13.1273 10.5369 13.4862 9.86561 13.8028C9.27773 14.0801 8.81344 14.2991 7.78131 14.2991C6.74918 14.2991 6.28482 14.0801 5.69695 13.8028C5.0257 13.4864 4.26486 13.1273 2.81268 13.1273V15.0023C3.8448 15.0023 4.30916 15.2213 4.89703 15.4986C5.56828 15.815 6.32912 16.1741 7.78131 16.1741C9.2335 16.1741 9.99428 15.8153 10.6655 15.4986C11.2534 15.2213 11.7178 15.0023 12.7499 15.0023C13.782 15.0023 14.2464 15.2213 14.8342 15.4986C15.5055 15.815 16.2663 16.1741 17.7186 16.1741C19.1708 16.1741 19.9317 15.8153 20.603 15.4986C21.1909 15.2213 21.6553 15.0023 22.6875 15.0023C23.7197 15.0023 24.1841 15.2213 24.772 15.4986C25.4433 15.815 26.2042 16.1741 27.6564 16.1741V14.2991C26.6242 14.2991 26.1598 14.0801 25.5719 13.8028C24.9004 13.4862 24.1396 13.1273 22.6875 13.1273ZM2.8125 26.25C2.81293 26.6228 2.96123 26.9802 3.22486 27.2439C3.48849 27.5075 3.84592 27.6558 4.21875 27.6562H26.25C26.6228 27.6558 26.9803 27.5075 27.2439 27.2439C27.5075 26.9802 27.6558 26.6228 27.6562 26.25V21.5625H2.8125V26.25ZM4.6875 23.4375H25.7812V25.7812H4.6875V23.4375Z" fill="black"/>
</g>
</svg>
