<svg width="20" height="21" viewBox="0 0 20 21" fill="none" xmlns="http://www.w3.org/2000/svg">
<g id="ant-design:search-outlined">
<path id="Vector" d="M17.7656 17.3555L12.6934 12.2832C13.4805 11.2656 13.9062 10.0215 13.9062 8.71289C13.9062 7.14648 13.2949 5.67773 12.1895 4.57031C11.084 3.46289 9.61133 2.85352 8.04688 2.85352C6.48242 2.85352 5.00977 3.46484 3.9043 4.57031C2.79687 5.67578 2.1875 7.14648 2.1875 8.71289C2.1875 10.2773 2.79883 11.75 3.9043 12.8555C5.00977 13.9629 6.48047 14.5723 8.04688 14.5723C9.35547 14.5723 10.5977 14.1465 11.6152 13.3613L16.6875 18.4316C16.7024 18.4465 16.72 18.4583 16.7395 18.4664C16.7589 18.4744 16.7797 18.4786 16.8008 18.4786C16.8218 18.4786 16.8427 18.4744 16.8621 18.4664C16.8815 18.4583 16.8992 18.4465 16.9141 18.4316L17.7656 17.582C17.7805 17.5672 17.7923 17.5495 17.8004 17.5301C17.8084 17.5106 17.8126 17.4898 17.8126 17.4688C17.8126 17.4477 17.8084 17.4269 17.8004 17.4074C17.7923 17.388 17.7805 17.3703 17.7656 17.3555ZM11.1406 11.8066C10.3125 12.6328 9.21484 13.0879 8.04688 13.0879C6.87891 13.0879 5.78125 12.6328 4.95312 11.8066C4.12695 10.9785 3.67188 9.88086 3.67188 8.71289C3.67188 7.54492 4.12695 6.44531 4.95312 5.61914C5.78125 4.79297 6.87891 4.33789 8.04688 4.33789C9.21484 4.33789 10.3145 4.79102 11.1406 5.61914C11.9668 6.44727 12.4219 7.54492 12.4219 8.71289C12.4219 9.88086 11.9668 10.9805 11.1406 11.8066Z" fill="black"/>
</g>
</svg>
